<svg width="176" height="26" xmlns="http://www.w3.org/2000/svg" xmlns:xlink="http://www.w3.org/1999/xlink"><defs><path id="a" d="M0 .007h13.353V18.73H0z"/><path id="c" d="M.02.007h13.354V18.73H.02z"/><path id="e" d="M.124.068h7.935v13.23H.124z"/><path id="g" d="M.139.219h13.953v23.275H.139z"/></defs><g fill="none" fill-rule="evenodd"><path d="M0 .125h175.904v25H0z"/><g transform="translate(0 .42)"><mask id="b" fill="#fff"><use xlink:href="#a"/></mask><path d="M10.87.028a3.47 3.47 0 0 1 1.846.796c.618.6.759 1.511.542 2.34-.192.737-.408 1.12-1.161 1.63-.76.513-1.68.47-1.68.47V8.46l1.554 1.258-1.555 1.255v4.354s1.558-.893 2.524-2.893c0 0 .04-.109.131-.315.086.536.037 1.62-.57 3.013-.456 1.048-1.286 2.057-2.328 2.631-1.846 1.024-3.23 1.122-4.714.814-1.737-.358-3.315-1.334-4.392-3.037C.31 14.343-.03 12.948.002 11.447.062 8.5 2.255 5.958 4.785 5.01c.308-.116.431-.192.868-.232-.201.138-.434.315-.72.503-.815.535-1.513 1.602-1.811 2.422l4.911-2.19v6.866l-3.96 1.985c.451.625 1.822 1.573 2.995 1.707 1.996.22 3.166-.651 3.166-.651v-4.448L8.688 9.718l1.547-1.254v-3.2c-.843-.098-1.868-.376-2.467-.524-.88-.218-3.818-1.042-4.28-1.11-.46-.07-1.03-.048-1.374.26-.345.31-.558.857-.412 1.348.083.279.275.442.42.6 0 0-.17-.014-.477-.198C1.09 5.307.669 4.656.618 3.854c-.065-1.052.368-2 1.236-2.636C2.608.733 3.46.423 4.452.563c1.446.206 3.391 1.024 5.123 1.44.671.162 1.191.216 1.663-.059.22-.159.606-.567.29-1.11-.369-.636-1.076-.621-1.674-.733.515-.109.628-.109 1.015-.073M5.03 13.681V7.05l-1.994.89s-.508 1.138-.42 2.79c.07 1.292.792 2.836 1.347 3.483l1.067-.532" fill="#000" mask="url(#b)"/></g><path d="M29.92 7.148s-1.505.91-2.518 1.515c-1.011.6-2.369 1.261-2.369 1.261v6.328l-.905.727.12.14.883-.71L27.9 18.91l4.81-3.81-.114-.138-2.658 2.086-2.185-2.046v-.763l4.389-3.23-2.222-3.861zm.063 5.224l-2.231 1.635V8.57l2.231 3.803zM17.31 21.29c.632.155 1.746.242 3.09-.432 1.487-.744 2.235-2.324 2.225-3.944l.063-2.296V9.603l.951-.727-.11-.141-.936.705-2.16-2.4-2.77 2.378V1.334L14.2 4.009c.155.098.645.188.66.879v11.325L13.393 17.3l.1.152.708-.528 1.971 1.833 3.104-2.47-.113-.14-.73.578-.772-.767.008-6.31.904-.77 1.348 1.675s-.002 4.086.001 5.442c-.01 1.446-.014 3.25-.774 4.121-.76.876-1.065.944-1.838 1.172M38.848 20.718c-1.24-.141-1.76-.893-1.746-1.486.009-.38.353-1.125 1.107-1.226.754-.105 1.524.25 2.174 1.012l2.864-3.163-.138-.124-.77.861a5.009 5.009 0 0 0-2.994-1.612V5.34l7.438 13.548s.071.155.377.155c.263 0 .2-.213.2-.213l-.001-13.635c.604-.025 1.527-.358 1.975-.817 1.432-1.472.847-3.077.69-3.232-.088.701-.627 1.406-1.528 1.41-1.18.003-1.901-.868-1.901-.868L43.733 4.95l.137.123.82-.936c1.001.922 1.732 1.008 2.488 1.059v7.911L41.66 3.084c-.499-.828-1.26-1.555-2.452-1.566-1.37-.007-2.352 1.2-2.469 2.242-.132 1.175.014 1.446.014 1.446s.202-1.309 1.012-1.298c.728.01 1.106.68 1.398 1.182v2.904c-.75.05-2.704.137-2.823 2.17-.009.755.46 1.547.872 1.814.528.347.94.34.94.34s-.633-.336-.443-1.001c.17-.597 1.41-.695 1.455-.445v4.096c-.597-.006-2.508.059-3.37 1.697-.52.99-.49 2.097.066 2.878.453.636 1.384 1.45 2.988 1.175M54.557 7.148s-1.505.91-2.517 1.515c-1.012.6-2.369 1.261-2.369 1.261v6.328l-.905.727.12.14.883-.71 2.768 2.501 4.81-3.81-.114-.138-2.658 2.086-2.186-2.046v-.763l4.39-3.23-2.222-3.861zm.064 5.224l-2.232 1.635V8.57l2.232 3.803zM61.281 18.957l-2.358-1.96-1.036.752-.106-.148 1.054-.77v-5.478c.05-2.256-2.066-1.696-1.952-4.09.05-1.052 1.07-1.847 1.583-2.111.55-.279 1.146-.279 1.146-.279s-.965.604-.73 1.472c.36 1.338 2.648 1.457 2.69 3.24V15.8l1.69 1.352.444-.347v-6.73l-.911-.904 2.345-2.075 2.142 1.898-.817.886v5.963L68.47 17.5l.356-.228v-7.178l-.912-.853 2.35-2.147 2.196 1.815.877-.778.118.138-1.974 1.735v5.85l-5.053 3.117-2.584-2.046-2.564 2.032M164.641 7.148s-1.505.91-2.516 1.515c-1.013.6-2.37 1.261-2.37 1.261v6.328l-.906.727.121.14.883-.71 2.768 2.501 4.81-3.81-.114-.138-2.658 2.086-2.186-2.046v-.763l4.39-3.23-2.222-3.861zm.064 5.224l-2.232 1.635V8.57l2.232 3.803zM142.058 9.794l.118.138.906-.781 1.345 1.522v5.229l-.653.596 2.095 2.369 2.15-2.12-.883-.914V9.509l.535-.427 1.486 1.736v5.214l-.559.557 1.974 2.22 2.11-2.112-.776-.814-.02-6.349.57-.463 1.55 1.707v5.185l-.51.51 2.18 2.375 2.924-2.7-.124-.134-.71.654-1.09-1.208V9.541l1.052-.799-.11-.145-1.052.8-1.99-2.231-2.846 2.249-1.993-2.17-2.749 2.152-2.011-2.14z" fill="#000"/><path fill="#000" d="M136.103 9.632l.118.137.766-.662 1.197 1.418v5.977l-.845.737.118.138.887-.756 1.93 2.227 2.79-2.49-.117-.138-.822.723-1.153-1.33V9.768l.973-.842-.118-.138-.924.796-2.032-2.369zM136.907 4.682l2.101-1.924 1.708 1.895-2.11 1.916z"/><g transform="translate(123.193 .42)"><mask id="d" fill="#fff"><use xlink:href="#c"/></mask><path d="M10.89.028a3.47 3.47 0 0 1 1.846.796c.619.6.759 1.511.543 2.34-.193.737-.409 1.12-1.162 1.63-.76.513-1.68.47-1.68.47V8.46l1.555 1.258-1.556 1.255v4.354s1.558-.893 2.525-2.893c0 0 .04-.109.13-.315.086.536.038 1.62-.569 3.013-.457 1.048-1.287 2.057-2.329 2.631-1.845 1.024-3.23 1.122-4.713.814-1.738-.358-3.316-1.334-4.393-3.037C.33 14.343-.009 12.948.023 11.447.083 8.5 2.275 5.958 4.806 5.01c.308-.116.43-.192.868-.232-.202.138-.435.315-.72.503-.815.535-1.513 1.602-1.812 2.422l4.911-2.19v6.866l-3.96 1.985c.452.625 1.822 1.573 2.996 1.707 1.995.22 3.166-.651 3.166-.651v-4.448L8.709 9.718l1.546-1.254v-3.2c-.843-.098-1.868-.376-2.466-.524-.882-.218-3.82-1.042-4.28-1.11-.461-.07-1.031-.048-1.375.26-.345.31-.558.857-.411 1.348.083.279.274.442.42.6 0 0-.17-.014-.478-.198C1.11 5.307.69 4.656.638 3.854c-.065-1.052.368-2 1.236-2.636C2.628.733 3.48.423 4.472.563c1.446.206 3.391 1.024 5.124 1.44.671.162 1.19.216 1.662-.059.22-.159.606-.567.29-1.11C11.18.199 10.473.214 9.874.102c.515-.109.628-.109 1.015-.073M5.05 13.681V7.05l-1.994.89s-.509 1.138-.42 2.79c.07 1.292.792 2.836 1.346 3.483l1.068-.532" fill="#000" mask="url(#d)"/></g><g transform="translate(167.771 6.444)"><mask id="f" fill="#fff"><use xlink:href="#e"/></mask><path d="M2.223 13.284c-.319.093-1.704-.243-2.037-1.678-.323-1.4.648-2.347 2.116-3.837L.569 6.186V3.163s1.273-.637 2.271-1.259C3.838 1.28 4.86.603 4.86.603s.744.94 1.585.864C7.761 1.351 7.7.313 7.662.068c.225.401.826 1.594-1.488 4.263l1.885 1.522V9.78s-2.19 1.139-4.26 2.65c0 0-1.156-1.446-2.16-.755-.678.466-.368 1.254.584 1.609M.594 10.257s.995-1.645 2.704-1.29c1.64.34 2.208 2.071 2.208 2.071V7.05l-1.143-.995C3.107 7.318.87 9.143.594 10.257m2.537-8.33v3.141l1.046.911s2.272-1.818 3.097-3.503c0 0-1.021 1.384-2.396.962-1.15-.351-1.747-1.512-1.747-1.512" fill="#000" mask="url(#f)"/></g><path d="M99.255 9.758l.85-.78.121.137-.826.766v6.245s-1.57.832-2.667 1.45a73.596 73.596 0 0 0-2.265 1.345l-2.88-2.426-.762.661-.123-.137.8-.698V9.606h.011s1.36-.614 2.505-1.261c1.026-.579 2.173-1.248 2.173-1.248l3.063 2.661zm-5.018 5.504l2.434 2.202v-6.74L94.237 8.47v6.79zM104.92 9.125l1.829-1.869s.252.22.487.336c.134.065.688.351 1.196.073.275-.152.315-.192.617-.478.061 1.454-.636 2.477-1.507 2.9-.357.174-1.397.507-2.486-.82v6.718l1.158 1.023.967-.8.112.142-3.028 2.527-2.304-2.096-.829.78-.136-.145 1.263-1.138.01-5.8-.968-1.284-.832.734-.121-.134 2.933-2.635 1.638 1.966M112.634 11.924l3.383-4.92s.447.527 1.224.733c1.056.275 1.979-.745 1.979-.745-.177 1.316-.844 2.81-2.222 3.037-1.213.203-2.342-.74-2.342-.74l-.22.339 4.697 7.094.94-.824.12.137-3.223 2.817-4.336-6.928" fill="#000"/><path d="M109.84 5.354c0-1.063-.436-1.717-1.005-1.67l3.69-2.593v14.673h.001l.974 1.027.738-.64.116.138-2.973 2.596-2.015-1.892-.806.71-.128-.138 1.407-1.226V5.354" fill="#000"/><g transform="translate(76.205 1.624)"><mask id="h" fill="#fff"><use xlink:href="#g"/></mask><path d="M2.784 3.488c0-.991-.403-1.544-1.054-1.559C.792 1.908.57 3.231.57 3.231s-.171-1.02.682-1.945C1.732.769 2.627.042 4.027.378 5.472.728 5.883 1.85 5.883 2.84v13.65a11.623 11.623 0 0 0 1.767.355V.385h.18v2.22L10.792.22l2.171 1.931 1.013-.875.115.137-1.058.912v12.691c-.053.828-.186 1.67-.968 2.155-1.744 1.034-3.848-.16-5.722-.43-1.39-.207-3.575-.47-4.123.806-.179.42-.166 1.066.465 1.49 1.266.846 6.905-1.422 8.839-.521 1.763.82 1.756 2.119 1.484 3.012-.458 1.674-2.572 1.967-2.572 1.967s1.034-.6.74-1.595c-.15-.502-.491-.644-1.598-.52-2.417.274-5.306 1.445-7.247.632-1-.415-1.708-1.667-1.64-2.896.05-1.768 2.092-2.466 2.092-2.466v-6.541c-.059-.26-1.148-.192-1.387.29-.362.726.45 1.059.45 1.059s-.673.101-1.237-.55C.335 10.59-.24 9.475.507 8.445c.614-.85 1.35-.998 2.277-1.1V3.489zM7.83 16.895s.86.228 1.487-.286c.697-.575.624-1.38.624-1.38v-5.085s-.404-.52-1.046-.52-1.065.538-1.065.538v6.733zM9.94 3.55L8.517 2.3l-.687.541v4.712s.423.535 1.065.535c.642 0 1.046-.513 1.046-.513V3.549zm0 4.306s-.407.463-1.048.463c-.642 0-1.062-.466-1.062-.466v2.01s.42-.466 1.062-.466c.641 0 1.049.44 1.049.44v-1.98z" fill="#000" mask="url(#h)"/></g></g></svg>